HIERARCHY
ROOT Hips
{
	OFFSET 0.000000 0.000000 0.000000
	CHANNELS 6 Xposition Yposition Zposition Xrotation Yrotation Zrotation
	JOINT LeftUpLeg_virtual
	{
		OFFSET 0.000000 0.000000 0.000000
		CHANNELS 3 Xrotation Yrotation Zrotation
		JOINT LeftUpLeg
		{
			OFFSET 10.205400 -3.823500 0.155100
			CHANNELS 3 Xrotation Yrotation Zrotation
			JOINT LeftLeg
			{
				OFFSET 0.708757 -12.982077 0.567790
				CHANNELS 3 Xrotation Yrotation Zrotation
				JOINT LeftFoot
				{
					OFFSET -0.708756 -10.717838 -2.184338
					CHANNELS 3 Xrotation Yrotation Zrotation
					JOINT LeftToeBase
					{
						OFFSET 0.108149 -7.191104 7.560241
						CHANNELS 3 Xrotation Yrotation Zrotation
						JOINT LeftToe_End
						{
							OFFSET 0.070230 0.081724 4.490308
							CHANNELS 3 Xrotation Yrotation Zrotation
							End Site
							{
								OFFSET 0 0 0
							}
						}
					}
				}
			}
		}
	}
	JOINT RightUpLeg_virtual
	{
		OFFSET 0.000000 0.000000 0.000000
		CHANNELS 3 Xrotation Yrotation Zrotation
		JOINT RightUpLeg
		{
			OFFSET -10.205400 -3.823500 0.005500
			CHANNELS 3 Xrotation Yrotation Zrotation
			JOINT RightLeg
			{
				OFFSET -0.708756 -12.982134 0.610632
				CHANNELS 3 Xrotation Yrotation Zrotation
				JOINT RightFoot
				{
					OFFSET 0.708754 -10.717769 -1.945823
					CHANNELS 3 Xrotation Yrotation Zrotation
					JOINT RightToeBase
					{
						OFFSET -0.108140 -7.191069 7.372968
						CHANNELS 3 Xrotation Yrotation Zrotation
						JOINT RightToe_End
						{
							OFFSET -0.070227 0.081735 4.479403
							CHANNELS 3 Xrotation Yrotation Zrotation
							End Site
							{
								OFFSET 0 0 0
							}
						}
					}
				}
			}
		}
	}
	JOINT Spine_virtual
	{
		OFFSET 0.000000 0.000000 0.000000
		CHANNELS 3 Xrotation Yrotation Zrotation
		JOINT Spine
		{
			OFFSET 0.000000 6.876099 0.125700
			CHANNELS 3 Xrotation Yrotation Zrotation
			JOINT Spine1
			{
				OFFSET 0.000000 5.730043 0.104720
				CHANNELS 3 Xrotation Yrotation Zrotation
				JOINT Spine1_split
				{
					OFFSET 0.000000 5.730043 0.104720
					CHANNELS 3 Xrotation Yrotation Zrotation
					JOINT Spine2
					{
						OFFSET 0.000000 5.730043 0.104720
						CHANNELS 3 Xrotation Yrotation Zrotation
						JOINT Neck_virtual
						{
							OFFSET 0.000000 0.000000 0.000000
							CHANNELS 3 Xrotation Yrotation Zrotation
							JOINT Neck
							{
								OFFSET 0.000000 10.314075 0.188496
								CHANNELS 3 Xrotation Yrotation Zrotation
								JOINT Head
								{
									OFFSET 0.000000 7.643700 -2.377400
									CHANNELS 3 Xrotation Yrotation Zrotation
									JOINT HeadTop_End
									{
										OFFSET 0.000000 43.788605 -13.619600
										CHANNELS 3 Xrotation Yrotation Zrotation
										End Site
										{
											OFFSET 0 0 0
										}
									}
								}
							}
						}
						JOINT LeftShoulder_virtual
						{
							OFFSET 0.000000 0.000000 0.000000
							CHANNELS 3 Xrotation Yrotation Zrotation
							JOINT LeftShoulder
							{
								OFFSET 2.196100 4.412489 0.087492
								CHANNELS 3 Xrotation Yrotation Zrotation
								JOINT LeftShoulder_split
								{
									OFFSET 2.196100 4.412489 0.087492
									CHANNELS 3 Xrotation Yrotation Zrotation
									JOINT LeftArm
									{
										OFFSET 8.771219 -2.981674 -0.026999
										CHANNELS 3 Xrotation Yrotation Zrotation
										JOINT LeftForeArm
										{
											OFFSET 8.512804 0.000000 -0.000000
											CHANNELS 3 Xrotation Yrotation Zrotation
											JOINT LeftHand
											{
												OFFSET 18.484802 0.000000 -0.000000
												CHANNELS 3 Xrotation Yrotation Zrotation
												End Site
												{
													OFFSET 0 0 0
												}
											}
										}
									}
								}
							}
						}
						JOINT RightShoulder_virtual
						{
							OFFSET 0.000000 0.000000 0.000000
							CHANNELS 3 Xrotation Yrotation Zrotation
							JOINT RightShoulder
							{
								OFFSET -2.196100 4.412496 0.070690
								CHANNELS 3 Xrotation Yrotation Zrotation
								JOINT RightShoulder_split
								{
									OFFSET -2.196100 4.412496 0.070690
									CHANNELS 3 Xrotation Yrotation Zrotation
									JOINT RightArm
									{
										OFFSET -8.771282 -2.981682 -0.094208
										CHANNELS 3 Xrotation Yrotation Zrotation
										JOINT RightForeArm
										{
											OFFSET -8.494598 0.000000 0.000000
											CHANNELS 3 Xrotation Yrotation Zrotation
											JOINT RightHand
											{
												OFFSET -18.483803 0.000000 0.000001
												CHANNELS 3 Xrotation Yrotation Zrotation
												End Site
												{
													OFFSET 0 0 0
												}
											}
										}
									}
								}
							}
						}
					}
				}
			}
		}
	}
}
MOTION
Frames: 4
Frame Time: 0.03333333
-4.134935 43.671104 0.664710 0.000000 0.000000 0.000000 -18.545936 5.488991 2.616401 -86.402726 16.701460 22.722286 113.085666 -17.804923 5.102004 -13.056872 8.941654 11.700438 9.271111 -1.318832 -3.722365 0.000000 0.000000 0.000000 -18.318455 -1.062070 1.187454 -88.629409 -3.028350 -8.677252 105.672555 -2.652890 1.610464 -21.023590 -0.311597 27.108159 -17.331885 -0.970410 -34.140489 0.000000 0.000000 0.000000 -9.558307 0.307224 -0.809262 -2.115925 8.945702 5.525279 18.384911 1.170732 1.661837 -0.002930 -1.184085 0.156714 0.000000 0.000000 0.000000 19.239876 3.100708 1.385691 3.879275 11.286755 -5.842674 1.130979 -44.613915 -8.687018 0.000000 0.000000 0.000000 24.489703 0.881848 3.504941 -1.976411 -2.037534 22.755559 -1.555555 1.403990 -5.767028 -39.957577 -41.624805 15.470918 -22.616928 -5.910799 -15.032389 0.000000 0.000000 0.000000 21.613686 1.204981 2.914542 0.237282 19.714870 -32.267231 2.619267 -3.637918 5.063745 -39.394690 18.243271 -16.048423 -44.139029 42.338218 32.607651 0.000000 0.000000 0.000000 
-3.747116 43.327972 0.544299 0.000000 0.000000 0.000000 -18.447682 5.394423 2.765671 -86.764856 15.444260 22.342850 111.199339 -18.734983 3.902567 -12.529867 8.125658 10.001923 9.045953 -1.207643 -3.692540 0.000000 0.000000 0.000000 -19.017311 -0.271735 1.446718 -88.429667 -2.941307 -11.039024 105.969545 -3.353393 2.679824 -24.003510 -0.353529 23.230366 -14.931159 -1.381260 -34.821691 0.000000 0.000000 0.000000 -11.046317 -0.008748 -0.926809 -2.080524 8.818460 5.703729 18.542845 0.952718 1.628174 0.129101 -0.677021 0.185048 0.000000 0.000000 0.000000 19.154477 2.817022 1.497559 4.259244 11.020392 -5.227863 0.395905 -43.874212 -7.930266 0.000000 0.000000 0.000000 24.344924 0.668210 3.549277 -1.997751 -2.359737 23.404326 -4.050850 0.346489 -5.411356 -40.867774 -40.285070 16.405911 -21.526526 -3.548650 -14.192403 0.000000 0.000000 0.000000 21.224753 0.978945 2.958414 0.943650 21.828033 -31.038357 1.913686 -3.468966 3.921602 -42.676962 18.439118 -13.415804 -44.854194 42.647336 32.707618 0.000000 0.000000 0.000000 
-3.312545 43.125587 0.515948 0.000000 0.000000 0.000000 -18.727076 4.928900 2.730070 -88.021201 13.481433 23.659447 110.896816 -20.056087 3.058068 -9.321535 6.332081 7.663486 8.135693 -1.179324 -3.305401 0.000000 0.000000 0.000000 -20.063578 0.280441 1.546011 -88.759579 -1.788861 -14.244025 106.915089 -2.788632 3.811307 -22.628193 0.936976 19.114617 -13.189333 -1.727584 -34.615863 0.000000 0.000000 0.000000 -12.324032 0.249770 -1.179491 -1.686386 8.273286 5.263970 18.357008 0.424816 1.340066 0.426207 -0.259218 0.054312 0.000000 0.000000 0.000000 18.312055 2.387015 1.324993 3.353911 10.910524 -3.566328 -2.313984 -44.327047 -6.389746 0.000000 0.000000 0.000000 23.350602 0.208795 3.363703 -1.353752 -3.460060 26.517453 -5.191067 -1.130381 -4.392188 -43.014172 -38.602733 14.370219 -20.391236 -3.930192 -13.290397 0.000000 0.000000 0.000000 19.821431 0.523712 2.749453 1.739050 24.422578 -29.104204 2.251232 -4.736815 3.494463 -46.870589 20.694555 -10.283345 -44.870368 41.972728 31.898216 0.000000 0.000000 0.000000 
-2.850500 43.164719 0.540207 0.000000 0.000000 0.000000 -19.470349 4.098647 2.385850 -89.341839 10.918546 26.274155 111.586815 -21.566835 2.764455 -4.588614 3.718161 5.792473 6.738854 -1.280937 -2.629146 0.000000 0.000000 0.000000 -21.318883 0.908096 1.419188 -89.807412 0.794671 -17.566376 107.308556 -0.420017 4.096214 -16.329113 2.939327 15.393284 -10.936835 -2.492902 -33.076591 0.000000 0.000000 0.000000 -13.220511 0.479778 -1.862847 -1.022736 7.521899 4.490358 18.056525 -0.278028 0.799685 0.571274 0.043643 -0.199606 0.000000 0.000000 0.000000 17.166012 1.892994 0.880637 1.260664 10.848915 -1.410712 -6.175726 -45.630435 -4.765712 0.000000 0.000000 0.000000 22.060053 -0.379594 2.931758 -0.134140 -4.653894 30.830572 -6.157408 -2.232394 -3.159038 -45.619315 -36.224045 10.327666 -19.076611 -7.613280 -12.340132 0.000000 0.000000 0.000000 18.055988 -0.052943 2.253960 2.545375 27.117999 -27.012266 4.341175 -6.137916 3.473669 -51.374706 23.994704 -7.044139 -44.325510 40.902431 30.576882 0.000000 0.000000 0.000000 
